<?xml version="1.0" encoding="iso-8859-1"?>
<!-- Generator: Adobe Illustrator 19.0.0, SVG Export Plug-In . SVG Version: 6.00 Build 0)  -->
<svg fill="#fff" version="1.1" id="Layer_1" xmlns="http://www.w3.org/2000/svg" xmlns:xlink="http://www.w3.org/1999/xlink" x="0px" y="0px"
	 viewBox="0 0 512 512" style="enable-background:new 0 0 512 512;" xml:space="preserve">
<g>
	<g>
		<path d="M256.128,33.272c-77.12,0-139.632,63.04-139.632,140.8s62.512,140.8,139.632,140.8s139.632-63.04,139.632-140.8
			S333.248,33.272,256.128,33.272z M256.128,298.872c-68.176,0-123.632-55.984-123.632-124.8s55.456-124.8,123.632-124.8
			s123.632,55.984,123.632,124.8S324.288,298.872,256.128,298.872z"/>
	</g>
</g>
<g>
	<g>
		<rect x="116.368" y="392.328" width="279.264" height="16"/>
	</g>
</g>
<g>
	<g>
		<rect y="462.728" width="512" height="16"/>
	</g>
</g>
<g>
	<g>
		<polygon points="315.856,125.096 304.48,113.816 256,162.696 207.52,113.816 196.144,125.096 244.72,174.072 196.144,223.032 
			207.52,234.328 256,185.448 304.48,234.328 315.856,223.032 267.28,174.072 		"/>
	</g>
</g>
<g>
</g>
<g>
</g>
<g>
</g>
<g>
</g>
<g>
</g>
<g>
</g>
<g>
</g>
<g>
</g>
<g>
</g>
<g>
</g>
<g>
</g>
<g>
</g>
<g>
</g>
<g>
</g>
<g>
</g>
</svg>
