<?xml version="1.0" encoding="iso-8859-1"?>
<!-- Generator: Adobe Illustrator 16.0.0, SVG Export Plug-In . SVG Version: 6.00 Build 0)  -->
<!DOCTYPE svg PUBLIC "-//W3C//DTD SVG 1.1//EN" "http://www.w3.org/Graphics/SVG/1.1/DTD/svg11.dtd">
<svg fill="#fff" version="1.1" id="Capa_1" xmlns="http://www.w3.org/2000/svg" xmlns:xlink="http://www.w3.org/1999/xlink" x="0px" y="0px"
	 width="63.062px" height="63.062px" viewBox="0 0 63.062 63.062" style="enable-background:new 0 0 63.062 63.062;"
	 xml:space="preserve">
<g>
	<g>
		<g>
			<path d="M61.895,39.62c-0.297,0-0.598-0.114-0.826-0.342L31.529,9.738L1.991,39.278c-0.453,0.456-1.197,0.456-1.652,0
				c-0.453-0.454-0.453-1.195,0-1.652l31.19-31.191l31.192,31.191c0.454,0.457,0.454,1.198,0,1.652
				C62.492,39.506,62.195,39.62,61.895,39.62z"/>
		</g>
		<g>
			<path d="M31.529,56.628c-7.516,0-13.629-6.113-13.629-13.627c0-7.519,6.113-13.633,13.629-13.633
				c7.518,0,13.631,6.115,13.631,13.633C45.16,50.515,39.047,56.628,31.529,56.628z M31.529,31.705
				c-6.227,0-11.293,5.068-11.293,11.296c0,6.227,5.066,11.291,11.293,11.291c6.227,0,11.295-5.064,11.295-11.291
				C42.824,36.773,37.756,31.705,31.529,31.705z"/>
		</g>
	</g>
</g>
<g>
</g>
<g>
</g>
<g>
</g>
<g>
</g>
<g>
</g>
<g>
</g>
<g>
</g>
<g>
</g>
<g>
</g>
<g>
</g>
<g>
</g>
<g>
</g>
<g>
</g>
<g>
</g>
<g>
</g>
</svg>
